<svg width="14" height="14" viewBox="0 0 14 14" fill="none" xmlns="http://www.w3.org/2000/svg">
<path d="M12 6.25H10.9375V2.75C10.9375 1.64531 10.0422 0.75 8.9375 0.75H5.0625C3.95781 0.75 3.0625 1.64531 3.0625 2.75V6.25H2C1.72344 6.25 1.5 6.47344 1.5 6.75V12.75C1.5 13.0266 1.72344 13.25 2 13.25H12C12.2766 13.25 12.5 13.0266 12.5 12.75V6.75C12.5 6.47344 12.2766 6.25 12 6.25ZM4.1875 2.75C4.1875 2.26719 4.57969 1.875 5.0625 1.875H8.9375C9.42031 1.875 9.8125 2.26719 9.8125 2.75V6.25H4.1875V2.75ZM11.375 12.125H2.625V7.375H11.375V12.125ZM6.5625 9.95312V10.7812C6.5625 10.85 6.61875 10.9062 6.6875 10.9062H7.3125C7.38125 10.9062 7.4375 10.85 7.4375 10.7812V9.95312C7.56648 9.86052 7.66275 9.72938 7.71245 9.57859C7.76216 9.42779 7.76273 9.26511 7.71409 9.11396C7.66545 8.96281 7.57011 8.831 7.44179 8.73749C7.31346 8.64398 7.15878 8.5936 7 8.5936C6.84122 8.5936 6.68654 8.64398 6.55821 8.73749C6.42989 8.831 6.33455 8.96281 6.28591 9.11396C6.23727 9.26511 6.23784 9.42779 6.28755 9.57859C6.33725 9.72938 6.43352 9.86052 6.5625 9.95312Z" fill="#9CA3AF"/>
</svg>
